<svg xmlns="http://www.w3.org/2000/svg" style="display:none">

  <!-- رفع بلاغ -->
  <symbol id="icon-warning" viewBox="0 0 24 24">
    <path d="M12 9v4M12 17h.01" stroke="currentColor" stroke-width="2" fill="none"/>
    <path d="M10.3 3.8l-8 14A2 2 0 004 21h16a2 2 0 001.7-3.2l-8-14a2 2 0 00-3.4 0z"
          stroke="currentColor" stroke-width="2" fill="none"/>
  </symbol>

  <!-- فحص رابط / درع -->
  <symbol id="icon-shield" viewBox="0 0 24 24">
    <path d="M12 3l7 4v5c0 5-3.5 7.5-7 9-3.5-1.5-7-4-7-9V7l7-4z"
          stroke="currentColor" stroke-width="2" fill="none"/>
  </symbol>

  <!-- التحليل الذكي -->
  <symbol id="icon-ai" viewBox="0 0 24 24">
    <rect x="4" y="4" width="16" height="16" rx="4"
          stroke="currentColor" stroke-width="2" fill="none"/>
    <circle cx="9" cy="10" r="1" fill="currentColor"/>
    <circle cx="15" cy="10" r="1" fill="currentColor"/>
    <path d="M9 15c1.5 1 4.5 1 6 0"
          stroke="currentColor" stroke-width="2" fill="none"/>
  </symbol>

  <!-- تنبيهات -->
  <symbol id="icon-bell" viewBox="0 0 24 24">
    <path d="M6 17h12l-1.5-2v-4a4.5 4.5 0 00-9 0v4L6 17z"
          stroke="currentColor" stroke-width="2" fill="none"/>
    <path d="M10 19a2 2 0 004 0"
          stroke="currentColor" stroke-width="2" fill="none"/>
  </symbol>

  <!-- سجل البلاغات -->
  <symbol id="icon-file" viewBox="0 0 24 24">
    <rect x="5" y="3" width="14" height="18" rx="2"
          stroke="currentColor" stroke-width="2" fill="none"/>
    <path d="M8 8h8M8 12h8M8 16h5"
          stroke="currentColor" stroke-width="2" fill="none"/>
  </symbol>

  <!-- الإعدادات -->
  <symbol id="icon-settings" viewBox="0 0 24 24">
    <circle cx="12" cy="12" r="3"
            stroke="currentColor" stroke-width="2" fill="none"/>
    <path d="M19 12l2-1-2-1-.5-2-2-.5-1-2-1 2-2 .5-.5 2-2 1 2 1 .5 2 2 .5 1 2 1-2 2-.5z"
          stroke="currentColor" stroke-width="1.5" fill="none"/>
  </symbol>

</svg>
